<?xml version="1.0" encoding="UTF-8" standalone="no"?>
<svg width="128px" height="128px" viewBox="0 0 128 128" version="1.1" xmlns="http://www.w3.org/2000/svg" xmlns:xlink="http://www.w3.org/1999/xlink">
    <!-- Generator: Sketch 3.7.2 (28276) - http://www.bohemiancoding.com/sketch -->
    <title>Group 6</title>
    <desc>Created with Sketch.</desc>
    <defs></defs>
    <g id="Page-1" stroke="none" stroke-width="1" fill="none" fill-rule="evenodd">
        <g id="Group-6" transform="translate(2.000000, 2.000000)">
            <circle id="Oval-1-Copy-2" stroke="#FFFFFF" stroke-width="4" cx="62" cy="62" r="62"></circle>
            <g id="flip" transform="translate(17.000000, 20.000000)">
                <g id="noun_124838_cc" transform="translate(0.000000, 25.000000)" fill="#FFFFFF">
                    <path d="M87.941,5.099 C84.569,4.271 80.67,3.248 77.192,1.809 L72.582,3.918 L72.582,3.04 C72.582,1.626 71.436,0.48 70.021,0.48 C68.606,0.48 67.461,1.626 67.461,3.04 L67.461,3.918 L62.851,1.81 C59.372,3.248 55.474,4.272 52.101,5.1 C50.733,5.436 50.514,5.84 50.514,6.145 C50.514,6.683 52.151,6.683 52.151,6.683 L67.462,6.683 L67.462,8.983 L67.12,8.983 L51.609,8.983 L37.919,8.983 L22.409,8.983 L22.067,8.983 L22.067,6.683 L37.377,6.683 C37.377,6.683 39.015,6.683 39.015,6.145 C39.015,5.84 38.796,5.437 37.428,5.1 C34.055,4.272 30.157,3.249 26.679,1.81 L22.068,3.918 L22.068,3.04 C22.068,1.626 20.922,0.48 19.508,0.48 C18.094,0.48 16.948,1.626 16.948,3.04 L16.948,3.918 L12.337,1.809 C8.858,3.247 4.961,4.271 1.588,5.099 C0.219,5.436 0,5.839 0,6.144 C0,6.682 1.637,6.682 1.637,6.682 L16.948,6.682 L16.948,9.501 C16.948,10.775 17.882,11.824 19.101,12.02 C19.205,12.042 19.311,12.055 19.421,12.055 L19.443,12.055 C19.465,12.056 19.485,12.062 19.507,12.062 C19.529,12.062 19.549,12.056 19.571,12.055 L22.408,12.055 L35.42,12.055 L35.42,15.183 C27.821,18.721 22.538,26.425 22.538,35.345 C22.538,36.195 23.226,36.882 24.074,36.882 C24.923,36.882 25.61,36.194 25.61,35.345 C25.61,28.01 29.755,21.629 35.822,18.411 C36.267,19.099 37.038,19.557 37.918,19.557 L51.608,19.557 C52.489,19.557 53.258,19.099 53.705,18.411 C59.772,21.629 63.917,28.011 63.917,35.346 C63.917,36.196 64.605,36.883 65.453,36.883 C66.301,36.883 66.989,36.195 66.989,35.346 C66.989,26.426 61.706,18.721 54.107,15.184 L54.107,12.056 L67.12,12.056 L69.958,12.056 C69.979,12.057 69.999,12.063 70.021,12.063 C70.043,12.063 70.064,12.057 70.085,12.056 L70.107,12.056 C70.216,12.056 70.324,12.044 70.427,12.021 C71.646,11.825 72.58,10.777 72.58,9.502 L72.58,6.683 L87.891,6.683 C87.891,6.683 89.528,6.683 89.528,6.145 C89.529,5.839 89.311,5.436 87.941,5.099 L87.941,5.099 Z" id="Shape"></path>
                </g>
                <g id="Group-4" transform="translate(44.717274, 43.145836) rotate(-6.000000) translate(-44.717274, -43.145836) translate(23.217274, 2.145836)" stroke="#FFFFFF">
                    <g id="Group-3" transform="translate(17.209057, 68.510956) scale(-1, 1) translate(-17.209057, -68.510956) translate(0.209057, 56.010956)">
                        <path d="M3.65022325,21.2750602 C13.3841519,21.2750602 21.2750602,13.3841519 21.2750602,3.65022325" id="Oval-1" stroke-width="4" transform="translate(12.462642, 12.462642) rotate(45.000000) translate(-12.462642, -12.462642) "></path>
                        <polygon id="Triangle-1" fill="#FFFFFF" transform="translate(25.000000, 12.000000) rotate(54.000000) translate(-25.000000, -12.000000) " points="25 6 31 18 19 18"></polygon>
                    </g>
                    <g id="Group-3-Copy" transform="translate(25.994522, 12.604528) scale(1, -1) translate(-25.994522, -12.604528) translate(8.994522, 0.104528)">
                        <path d="M3.65022325,21.2750602 C13.3841519,21.2750602 21.2750602,13.3841519 21.2750602,3.65022325" id="Oval-1" stroke-width="4" transform="translate(12.462642, 12.462642) rotate(45.000000) translate(-12.462642, -12.462642) "></path>
                        <polygon id="Triangle-1" fill="#FFFFFF" transform="translate(25.000000, 12.000000) rotate(54.000000) translate(-25.000000, -12.000000) " points="25 6 31 18 19 18"></polygon>
                    </g>
                </g>
            </g>
        </g>
    </g>
</svg>
